<svg width="81" height="81" viewBox="0 0 81 81" fill="none" xmlns="http://www.w3.org/2000/svg">
<path d="M43.741 80.1861C64.196 80.1861 80.778 63.6041 80.778 43.1491C80.778 22.6941 64.196 6.11206 43.741 6.11206C23.286 6.11206 6.70399 22.6941 6.70399 43.1491C6.70399 63.6041 23.286 80.1861 43.741 80.1861Z" fill="black"/>
<path d="M38.605 76.433C59.497 76.433 76.433 59.497 76.433 38.605C76.433 17.715 59.497 0.777954 38.605 0.777954C17.715 0.777954 0.779007 17.714 0.779007 38.606C0.779007 59.496 17.715 76.433 38.607 76.433H38.605Z" fill="#FF90E8" stroke="black" stroke-width="1.557"/>
<path d="M24.6505 17.0378L20 17.059L20.015 36.9831L20.0374 56.9H32.6357C45.8919 56.9 45.9816 56.9 48.0751 56.5742C52.0752 55.9651 55.4472 54.3856 57.4958 52.1474C58.0865 51.51 58.2509 51.2833 58.6995 50.5609C59.7164 48.9106 60.1874 47.3736 60.2771 45.4187C60.4416 41.7923 59.0285 39.1079 56.0378 37.3656C54.5649 36.5085 52.1873 35.8286 50.0191 35.6515C49.0994 35.5736 49.1592 35.6161 49.1592 35.014C49.1592 34.5112 49.1667 34.4828 49.3312 34.4828C49.4209 34.4828 50.2658 34.5182 51.2004 34.5607C53.1219 34.6528 53.107 34.6599 54.206 34.1712C56.4117 33.1938 58.0939 31.4514 58.7967 29.4044C59.4098 27.6408 59.3874 25.3318 58.7594 23.5186C57.5407 20.048 53.8696 17.8311 48.2994 17.2078C46.3031 16.9811 43.8209 16.967 24.6505 17.0378ZM44.5984 23.5186C46.5349 23.9223 47.7013 24.6448 48.3592 25.8205C48.7854 26.5926 48.8901 27.0742 48.8976 28.2499C48.8976 29.4257 48.748 30.0773 48.2994 30.8352C47.6041 32.0109 46.4003 32.7617 44.5685 33.1583C43.9106 33.3 43.6788 33.3071 36.9946 33.3283L30.0936 33.3567V28.3208V23.2849L36.9198 23.3132L43.7386 23.3344L44.5984 23.5186ZM44.0825 39.1575C46.1985 39.3629 47.8209 39.8658 48.905 40.6662C49.6826 41.2399 50.3331 42.189 50.6172 43.1593C50.8116 43.818 50.849 45.3762 50.692 46.1058C50.4378 47.2957 49.8321 48.2448 48.8976 48.9106C47.7985 49.6897 46.3555 50.1501 44.3741 50.3413C43.9031 50.3909 41.0395 50.4192 36.8525 50.4192H30.0936V44.753V39.0867H36.703C40.7255 39.0867 43.6115 39.115 44.0825 39.1575Z" fill="black"/>
</svg>
