<svg width="120" height="119" viewBox="0 0 120 119" fill="none" xmlns="http://www.w3.org/2000/svg">
<path d="M64.5 119C95.1519 119 120 94.1518 120 63.5C120 32.8482 95.1519 8 64.5 8C33.8482 8 9 32.8482 9 63.5C9 94.1518 33.8482 119 64.5 119Z" fill="black"/>
<path d="M57.4985 114C88.7037 114 114 88.704 114 57.4993C114 26.2975 88.7037 1 57.4985 1C26.2963 1 1 26.296 1 57.5007C1 88.7025 26.2963 114 57.5015 114H57.4985Z" fill="#FF90E8" stroke="black" stroke-width="1.557"/>
<path d="M30.0263 25.3535C29.9399 25.5309 30.0695 27.0836 30.3719 28.7694C30.7176 30.4995 31.7113 36.7545 32.6186 42.699L34.2604 53.5233L33.4395 59.3348C33.0074 62.5288 32.0569 69.2275 31.2792 74.2404C30.5015 79.2533 29.9831 83.4677 30.0695 83.6451C30.1559 83.8669 40.0066 84 51.9312 84C69.386 84 74.225 83.8669 76.6445 83.3346C82.6932 82.0037 86.4088 79.2089 88.6987 74.2404C89.822 71.7561 89.9948 70.8689 89.9948 67.5861C90.038 64.4364 89.822 63.4161 88.9147 61.3754C88.2666 60.0445 87.0569 58.2257 86.1928 57.3385C84.551 55.6527 80.6193 53.3902 79.3232 53.3902C78.1567 53.3902 78.4591 52.6805 80.0145 51.7045C82.1747 50.2849 83.6005 48.5104 84.9398 45.6269C86.5384 42.1223 86.668 36.5771 85.2423 33.383C83.3413 29.1686 79.3232 26.3738 73.8362 25.4866C70.5526 24.9099 30.3719 24.8212 30.0263 25.3535ZM68.6516 36.7545C72.5832 39.1057 72.4968 44.296 68.4787 47.357C67.3986 48.2443 66.6209 48.2886 57.375 48.4217C51.9312 48.5104 47.4811 48.5104 47.4811 48.4217C47.4811 48.333 47.0058 45.5825 46.4442 42.2998C45.8825 39.017 45.5369 36.1334 45.6233 35.956C45.7529 35.7342 50.6351 35.6455 56.5109 35.7342C66.2753 35.8673 67.269 35.956 68.6516 36.7545ZM71.9783 60.1333C75.694 62.2626 76.6445 68.1184 73.6633 70.8689C71.5895 72.7764 70.5526 72.9095 57.6343 72.9095C50.8511 72.9095 45.3209 72.8208 45.3209 72.7321C45.3209 72.4215 47.0491 61.7303 47.3083 60.3994C47.4379 59.734 47.8267 59.1573 48.2156 59.0686C48.6044 58.9799 53.789 59.0242 59.7513 59.1573C68.954 59.3348 70.8118 59.5122 71.9783 60.1333Z" fill="black"/>
</svg>
