<svg width="1330" height="187" viewBox="0 0 1330 187" fill="none" xmlns="http://www.w3.org/2000/svg">
<path d="M209.267 1.46664C208.733 1.99997 208.333 43.2 208.333 92.9333V183.333L230.067 183.067L251.667 182.667V92V1.3333L230.867 0.933303C219.533 0.79997 209.8 1.06664 209.267 1.46664Z" fill="black"/>
<path d="M649.667 92V183.333H668.867H688.2L709.133 159.333L730.2 135.333L732.867 139.6C734.467 142 740.867 152.667 747.133 163.333L758.6 182.667L782.733 183.067C799.8 183.333 807 182.933 807 181.867C807 181.067 797.533 165.333 785.933 146.933C774.333 128.4 763.4 110.8 761.667 107.867L758.467 102.267L777.933 79.8666C788.6 67.4666 798.867 55.3333 800.867 52.9333L804.6 48.6666H781.267H757.8L725.933 87.8666C708.333 109.467 693.533 126.8 693.133 126.4C692.6 125.867 692.333 98.1333 692.333 64.8C692.333 31.3333 692.333 3.19997 692.333 2.26664C692.333 1.06664 687.133 0.666637 671 0.666637H649.667V92Z" fill="black"/>
<path d="M0.86665 9.59998C1.26665 11.7333 1.93332 15.4666 2.33332 18C2.59998 20.5333 5.39998 38 8.46665 56.6666C13.6667 88.1333 13.3333 92.3 12 101.5C11.2 106.967 8.73332 126.8 5.66665 146.667C2.73332 166.4 0.333317 182.8 0.333317 182.933C0.333317 184.133 135.667 183.067 142.733 182C161.133 178.933 175.533 168.667 182.467 153.6C187.533 142.533 187.8 126.267 183.267 116C177.933 104.4 168.067 96.4 151.8 90.8C149.533 90 149.8 89.4667 154.467 86.4C166.6 78.2667 173.133 67.0666 174.6 52.4C176.733 29.6 162.333 11.8666 137.8 7.3333C133.667 6.5333 103.4 5.99997 65.4 5.99997H0.0666504L0.86665 9.59998ZM119.933 40.5333C132.6 46.4 133.133 65.0666 120.867 72.8C115.8 75.8666 114.733 76 84.8667 76.4L54.0667 76.8L51.1333 58.9333C49.6667 49.0666 48.3333 40.4 48.3333 39.4666C48.3333 38.4 57.5333 38 81.4 38C110.867 38 114.867 38.2666 119.933 40.5333ZM123.267 108.8C145.8 113.733 148.067 143.867 126.333 149.867C123 150.8 106.867 151.333 84.7333 151.333C48.8667 151.333 48.3333 151.333 48.3333 148.533C48.3333 145.333 53.4 111.333 54.3333 108.933C55.1333 106.8 113 106.667 123.267 108.8Z" fill="black"/>
<path d="M328.333 45.6C321.933 46.5333 309 51.7333 303.667 55.3333C291 64 281.667 77.2 276.867 93.3333C273.8 103.867 273.667 126.133 276.733 137.867C282.6 160 297.667 176.267 319 183.333C330.333 187.2 349.8 187.467 360.333 184C374.067 179.6 388.733 169.2 395.4 159.467C396.6 157.6 398.067 156.533 398.6 157.067C399.133 157.6 400.2 163.6 401 170.4L402.333 182.667L424.2 183.067C436.333 183.2 446.6 182.933 447.133 182.4C447.667 181.733 446.333 168.4 444.2 152.667C442.2 136.933 440.467 120.667 440.333 116.533C440.333 110.533 444.2 76.5333 447.533 52.9333L448.2 48.6667L425.267 48.9333L402.333 49.3333L401.4 58C400.733 62.8 400.067 68.5333 399.667 70.9333L398.867 75.0667L389.267 65.4667C372.6 48.8 351.4 41.8667 328.333 45.6ZM363.667 80C368.067 81.2 374.867 84.1333 378.733 86.8C386.333 91.7333 396.467 104.533 399 112C400.333 116.133 400.067 117.333 396.2 124.667C390.6 135.2 378.733 146.267 369 149.867C348.333 157.6 327.533 149.067 321 130.133C318.733 123.333 318.333 110.267 320.333 103.2C323.267 92.5333 333.267 82.8 343.933 79.8667C352.467 77.6 354.333 77.6 363.667 80Z" fill="black"/>
<path d="M531.667 45.4667C505.8 49.7333 482.467 64.6667 473.133 83.0667C463 103.067 463.133 130.133 473.4 149.2C480.867 163.2 499.267 177.2 517.267 182.667C534.733 188 560.733 187.733 579.133 182C603.667 174.4 625.267 152.667 627.933 132.8L628.733 127.333H606.467C586.733 127.333 584.333 127.6 584.333 129.6C584.333 134.133 577.667 143.2 571.4 146.933C550.6 159.733 523.667 154 513.267 134.667C509.267 127.333 509 105.2 512.867 97.6C516.067 91.0667 521.933 85.3333 528.867 81.7333C536.333 77.8667 552.067 76.9333 561.933 79.8667C571.4 82.5333 580.733 90.6667 583.4 98.4L585.267 104L607 104.4L628.733 104.8L627.933 99.2C627.533 96.1333 625 89.2 622.467 83.8667C614.2 67.3333 595.8 53.6 574.333 48C566.333 45.8667 539.267 44.2667 531.667 45.4667Z" fill="black"/>
<path d="M861.533 46.6667C839.8 50.1333 823 59.8667 815.933 73.2C811.667 81.3333 811.8 96.4 816.333 105.2C824.867 121.867 841.267 127.733 889.933 131.867C914.733 134 921.8 135.867 924.333 140.667C926.6 144.933 923.8 150.667 917.933 153.6C910.867 157.067 880.067 157.067 870.067 153.6C863.533 151.333 853.667 142.667 853.667 139.333C853.667 138.533 845.133 138 831 138H808.467L809.133 142.267C814.733 172.533 855.8 190.8 907.4 186C938.067 183.2 956.333 173.867 964.467 157.067C969 147.733 969 131.867 964.333 122.933C958.733 111.867 945.533 104.533 925 100.8C920.6 100 905.667 98.4 891.8 97.3333C861.267 94.9333 857 93.4667 857 85.4667C857 80.8 857.533 79.8667 861.667 77.4667C865.8 75.0667 868.6 74.6667 884.333 74.6667C901 74.6667 902.867 74.9333 909 78C913 80.1333 917 83.4667 918.867 86.4L922.067 91.3333H943.933H965.933L965 86.9333C961.533 71.4667 948.467 59.0667 927.133 51.3333C909 44.6667 885.133 43.0667 861.533 46.6667Z" fill="black"/>
<path d="M1046.73 46C1004.73 53.0666 978.467 86.5333 984.2 125.6C987.933 151.333 1006.07 171.867 1033.27 181.333C1061.8 191.333 1103.13 186.667 1130.47 170.667L1136.33 167.2V153.333C1136.33 145.6 1136.07 139.333 1135.67 139.333C1135.27 139.333 1131.4 141.067 1127 143.333C1112.2 150.8 1100.47 153.2 1079.67 153.2C1058.33 153.333 1050.6 151.2 1040.47 142.533C1035.8 138.4 1031 131.867 1031 129.467C1031 129.067 1055.4 128.533 1085.4 128.4L1139.67 128L1139.27 120C1137.93 90.8 1122.47 64.1333 1100.07 52.9333C1085.67 45.6 1065 42.9333 1046.73 46ZM1077.53 78.6666C1086.6 81.8666 1094.6 89.6 1097 97.6L1097.8 100.667H1063.8C1040.47 100.667 1029.67 100.267 1029.67 99.2C1029.67 92.6666 1041.93 81.0666 1052.33 77.8666C1058.07 76.1333 1071.67 76.5333 1077.53 78.6666Z" fill="black"/>
<path d="M1205.13 46.8C1182.47 52.2666 1164.6 70.4 1158.33 94.1333C1155.8 103.2 1155.8 128.533 1158.2 137.333C1162.47 153.467 1172.2 167.467 1185 175.867C1194.07 182 1201 184.533 1213.4 186C1235.4 188.8 1255.27 181.867 1271.13 165.867C1276.07 160.8 1280.47 157.067 1280.73 157.733C1281.13 158.267 1281.8 163.2 1282.33 168.667C1283.8 184.8 1281.27 183.333 1307.27 183.333H1329.93L1329.27 178.933C1328.73 176.667 1326.87 161.333 1324.87 145.067L1321.4 115.467L1324.87 86.4C1326.87 70.4 1328.87 55.3333 1329.27 52.9333L1329.93 48.6666H1307.27C1281.27 48.6666 1283.67 47.2 1282.2 63.3333C1281.67 68.8 1281.13 73.7333 1280.73 74.2666C1280.47 74.8 1276.73 71.6 1272.47 66.9333C1268.07 62.4 1261.13 56.5333 1256.87 54C1242.6 45.4666 1222.47 42.5333 1205.13 46.8ZM1253.4 82.6666C1262.47 86.8 1274.2 98.6666 1278.47 108C1282.6 116.933 1281.8 120.8 1273 132.4C1262.87 145.733 1250.07 152.533 1234.87 152.667C1214.33 152.8 1200.33 137.467 1200.33 115.2C1200.33 86.5333 1226.47 70.5333 1253.4 82.6666Z" fill="black"/>
</svg>
